<svg width="1440" height="900" viewBox="0 0 1440 900" fill="none" xmlns="http://www.w3.org/2000/svg">
<g opacity="0.04" clip-path="url(#clip0_1673_6333)">
<path fill-rule="evenodd" clip-rule="evenodd" d="M643.154 132.914C771.645 95.2951 1510.53 97.6249 1667.69 98.558C1667.58 97.39 1667.44 96.2791 1667.34 95.1237C1666.92 90.7753 1666.51 86.4459 1666.03 82.2245C1494.64 80.1487 744.558 70.3791 448.454 118.148C448.454 118.148 370.119 131.193 383.075 158.737C399.231 193.087 495.778 198.921 583.629 216.105C678.742 234.717 858.302 240.342 828.359 294.706C798.402 349.071 559.487 399.296 458.598 421.972C383.761 438.794 -53.8607 507.683 -298 600.714C-279.559 855.416 -108.505 876.307 -62.3163 885.487C-46.5414 888.616 -25.4024 891.378 0.224666 893.803C113.385 812.471 318.084 711.023 610.341 622.119C1121.3 466.681 1303.38 365.976 1222.93 272.431C1142.5 178.88 499.213 175.058 643.154 132.914" fill="#008BAB"/>
<path fill-rule="evenodd" clip-rule="evenodd" d="M126.873 614.267C157.223 605.608 213.486 588.627 244.134 580.946C250.635 579.321 257.23 583.27 258.862 589.776C260.48 596.239 256.576 602.79 250.146 604.472C219.859 612.363 163.939 629.61 133.888 638.453C127.222 640.415 120.22 636.606 118.259 629.934C116.291 623.262 120.112 616.26 126.778 614.299L126.873 614.267Z" fill="#008BAB"/>
<path fill-rule="evenodd" clip-rule="evenodd" d="M434.078 530.664C464.567 523.751 505.62 514.388 535.754 506.027C541.429 504.453 547.314 507.786 548.888 513.461C550.444 519.073 547.2 524.887 541.645 526.551C511.346 535.559 470.109 545.595 439.404 553.155C433.202 554.685 426.942 550.902 425.413 544.7C423.889 538.498 427.672 532.239 433.868 530.715C433.925 530.702 434.027 530.677 434.078 530.664" fill="#33BEDE"/>
<path fill-rule="evenodd" clip-rule="evenodd" d="M690.418 461.61C720.05 451.65 757.193 438.052 786.076 426.239C790.768 424.321 796.119 426.562 798.036 431.247C799.94 435.888 797.744 441.188 793.154 443.156C764.011 455.573 726.671 469.742 696.842 480.267C691.706 482.082 686.069 479.384 684.254 474.249C682.445 469.113 685.136 463.476 690.278 461.661C690.303 461.648 690.386 461.623 690.418 461.61" fill="#33BEDE"/>
<path fill-rule="evenodd" clip-rule="evenodd" d="M915.475 368.789C929.155 361.463 942.588 353.718 955.443 345.256C968.259 336.782 980.6 327.583 991.201 317.116L991.258 317.052C994.318 314.03 999.238 314.062 1002.25 317.116C1005.24 320.144 1005.24 325.006 1002.26 328.028C990.636 339.842 977.743 349.675 964.489 358.74C951.202 367.773 937.484 375.949 923.55 383.675C919.468 385.941 914.307 384.468 912.047 380.374C909.781 376.286 911.254 371.125 915.342 368.858C915.361 368.846 915.45 368.801 915.475 368.789" fill="#33BEDE"/>
<path fill-rule="evenodd" clip-rule="evenodd" d="M981.82 256.811C974.983 253.923 967.759 251.593 960.402 249.6L957.653 248.883C956.84 248.667 956.028 248.451 955.006 248.28L949.229 247.188L937.676 245.004L891.443 236.256C887.99 235.596 885.711 232.27 886.371 228.81C887.012 225.382 890.294 223.122 893.715 223.713L893.76 223.719L940.336 231.819L951.984 233.851L957.812 234.866C958.732 235 959.824 235.253 960.916 235.52L963.887 236.263C971.727 238.25 979.547 240.63 987.241 243.741C990.86 245.214 992.605 249.333 991.139 252.958C989.673 256.577 985.553 258.322 981.934 256.856C981.915 256.849 981.839 256.818 981.82 256.811" fill="#33BEDE"/>
<path fill-rule="evenodd" clip-rule="evenodd" d="M798.842 217.886L706.427 198.671C703.989 198.163 702.428 195.77 702.936 193.332C703.431 190.92 705.773 189.364 708.179 189.809L708.243 189.822L800.899 207.183L800.956 207.196C803.908 207.748 805.856 210.599 805.311 213.551C804.752 216.509 801.902 218.458 798.95 217.905C798.924 217.899 798.867 217.893 798.842 217.886" fill="#33BEDE"/>
<path fill-rule="evenodd" clip-rule="evenodd" d="M614.309 177.969C599.01 174.275 583.667 170.58 568.482 166.118C560.89 163.89 553.336 161.496 545.864 158.665C542.125 157.256 538.424 155.713 534.781 153.898C531.15 152.038 527.506 150.076 524.243 146.782C523.215 145.74 523.227 144.058 524.268 143.03C525.284 142.033 526.89 142.014 527.925 142.96L528.128 143.15C533.067 147.702 540.748 150.622 547.864 153.25C555.158 155.866 562.642 158.068 570.177 160.119C585.254 164.232 600.559 167.609 615.896 170.993C617.832 171.412 619.057 173.316 618.651 175.246C618.226 177.176 616.321 178.407 614.391 177.989C614.372 177.989 614.322 177.976 614.309 177.969" fill="#33BEDE"/>
<path fill-rule="evenodd" clip-rule="evenodd" d="M606.988 113.906L654.306 108.237C654.998 108.155 655.633 108.65 655.715 109.348C655.791 110.04 655.283 110.662 654.604 110.757L607.483 117.34L607.432 117.347C606.486 117.48 605.604 116.82 605.477 115.874C605.343 114.922 606.004 114.039 606.956 113.912C606.962 113.912 606.981 113.906 606.988 113.906" fill="#33BEDE"/>
</g>
<defs>
<clipPath id="clip0_1673_6333">
<rect width="1440" height="900" fill="white"/>
</clipPath>
</defs>
</svg>
